<svg width="174" height="36" viewBox="0 0 174 36" fill="none" xmlns="http://www.w3.org/2000/svg">
<path d="M58.8755 12.415C58.8755 14.1143 58.4696 15.5822 57.6577 16.8188C56.9686 17.8573 56.1095 18.5936 55.0806 19.0278C55.7414 19.311 56.2795 19.7783 56.6948 20.4297C57.1102 21.0811 57.3179 21.7749 57.3179 22.5112C57.3179 24.3426 56.3408 25.6831 54.3867 26.5327C52.8763 27.1935 50.8939 27.5239 48.4395 27.5239C46.3249 27.5239 44.0545 27.3493 41.6284 27C41.5623 24.8005 41.4255 21.2132 41.2178 16.2383C41.0762 13.5667 40.8638 9.90397 40.5806 5.25C42.3742 4.90072 44.6445 4.72607 47.3916 4.72607C55.0475 4.72607 58.8755 7.28906 58.8755 12.415ZM53.1123 15.0771C53.1123 14.3503 52.8197 13.7933 52.2344 13.4062C51.7057 13.057 51.0119 12.8918 50.1528 12.9106L49.9404 17.1729C52.055 17.2484 53.1123 16.5498 53.1123 15.0771ZM52.645 21.8032C52.645 20.7082 51.8615 20.1606 50.2944 20.1606C50.134 20.1606 49.9688 20.1701 49.7988 20.189L49.7139 23.6582C51.668 23.7432 52.645 23.1248 52.645 21.8032ZM73.9283 22.7095C73.8339 23.0871 73.6593 23.7998 73.4044 24.8477C73.2722 25.4613 73.1589 26.1787 73.0645 27H60.2496C60.2024 24.7816 60.0844 21.1283 59.8956 16.04C59.7729 13.4346 59.551 9.83789 59.2301 5.25H69.0572L68.2501 23.29C69.1658 23.29 70.5393 23.1909 72.3707 22.9927C72.7483 22.9549 73.2675 22.8605 73.9283 22.7095ZM93.0168 15.6577C93.0168 18.9901 92.1577 21.8079 90.4396 24.1113C88.6365 26.5186 86.3284 27.7222 83.5153 27.7222C80.6172 27.7222 78.2713 26.5091 76.4777 24.083C74.7879 21.7985 73.943 18.9901 73.943 15.6577C73.943 12.0988 74.8634 9.30452 76.7043 7.2749C78.4412 5.368 80.7116 4.41455 83.5153 4.41455C86.2718 4.41455 88.5185 5.37272 90.2555 7.28906C92.0963 9.32812 93.0168 12.1177 93.0168 15.6577ZM86.2057 18.1499C86.2057 15.5256 85.3184 14.2134 83.5436 14.2134C81.8161 14.2134 80.9523 15.535 80.9523 18.1782C80.9523 19.2355 81.1789 20.222 81.632 21.1377C82.1418 22.1667 82.7695 22.6812 83.5153 22.6812C84.2422 22.6812 84.8841 22.1572 85.4411 21.1094C85.9508 20.1559 86.2057 19.1694 86.2057 18.1499ZM112.459 17.6968C112.365 18.4992 112.223 20.0143 112.034 22.2422C111.94 23.5732 111.85 25.1497 111.765 26.9717C110.5 27.3398 108.655 27.5239 106.229 27.5239C102.623 27.5239 99.6915 26.7121 97.4353 25.0884C94.7732 23.1532 93.4421 20.2739 93.4421 16.4507C93.4421 12.7879 94.608 9.92757 96.9397 7.86963C99.1298 5.93441 102.014 4.9668 105.592 4.9668C106.941 4.9668 108.391 5.07064 109.939 5.27832L110.718 14.2134C110.094 13.9774 109.207 13.8594 108.055 13.8594C106.592 13.8594 105.271 14.3078 104.091 15.2046C102.769 16.2147 102.108 17.4985 102.108 19.0562C102.108 20.5288 102.67 21.6663 103.793 22.4688C104.737 23.1484 105.828 23.4694 107.064 23.4316L106.838 20.5854C106.781 20.0002 106.654 19.0373 106.455 17.6968H112.459Z" fill="white"/>
<path d="M134.026 5.25C133.865 7.57227 133.653 11.353 133.388 16.5923C133.313 19.0845 133.181 22.5537 132.992 27H125.77L125.615 22.2422C125.445 22.2988 125.1 22.4357 124.581 22.6528C123.967 22.9172 123.533 23.1296 123.278 23.29L122.542 21.5483C122.391 21.1707 122.141 20.6374 121.791 19.9482L121.65 27H113.678L113.267 16.5923C113.182 13.883 112.97 10.1022 112.63 5.25H122.57L121.905 18.6455C122.594 18.7116 123.255 18.7305 123.887 18.7021C124.293 18.6927 124.84 18.6549 125.53 18.5889L124.807 5.25H134.026ZM153.794 5.25L153.468 14.4116C153.374 17.0265 153.327 20.9819 153.327 26.2778C150.91 27.1463 148.446 27.5806 145.935 27.5806C142.839 27.5806 140.483 26.9622 138.869 25.7256C137.5 24.6777 136.533 23.0446 135.966 20.8262C135.636 19.5518 135.324 17.2201 135.032 13.8311C134.748 10.6969 134.574 7.83659 134.508 5.25H143.641C143.594 6.49609 143.537 8.52572 143.471 11.3389C143.443 12.9059 143.452 15.1291 143.499 18.0083C143.509 20.1984 143.698 21.6758 144.066 22.4404C144.453 23.2523 145.227 23.6582 146.388 23.6582C146.718 23.6582 147.087 23.5638 147.493 23.375C147.493 21.4303 147.436 18.3387 147.323 14.1001C147.228 11.9761 147.054 9.02604 146.799 5.25H153.794ZM172.67 12.415C172.67 14.1143 172.264 15.5822 171.452 16.8188C170.763 17.8573 169.904 18.5936 168.875 19.0278C169.536 19.311 170.074 19.7783 170.489 20.4297C170.905 21.0811 171.112 21.7749 171.112 22.5112C171.112 24.3426 170.135 25.6831 168.181 26.5327C166.671 27.1935 164.688 27.5239 162.234 27.5239C160.119 27.5239 157.849 27.3493 155.423 27C155.357 24.8005 155.22 21.2132 155.012 16.2383C154.871 13.5667 154.658 9.90397 154.375 5.25C156.169 4.90072 158.439 4.72607 161.186 4.72607C168.842 4.72607 172.67 7.28906 172.67 12.415ZM166.907 15.0771C166.907 14.3503 166.614 13.7933 166.029 13.4062C165.5 13.057 164.806 12.8918 163.947 12.9106L163.735 17.1729C165.849 17.2484 166.907 16.5498 166.907 15.0771ZM166.439 21.8032C166.439 20.7082 165.656 20.1606 164.089 20.1606C163.928 20.1606 163.763 20.1701 163.593 20.189L163.508 23.6582C165.462 23.7432 166.439 23.1248 166.439 21.8032Z" fill="#7B61FF"/>
<path opacity="0.4" d="M25.625 15.7375H22.0125C19.05 15.7375 16.6375 13.325 16.6375 10.3625V6.75C16.6375 6.0625 16.075 5.5 15.3875 5.5H10.0875C6.2375 5.5 3.125 8 3.125 12.4625V23.5375C3.125 28 6.2375 30.5 10.0875 30.5H19.9125C23.7625 30.5 26.875 28 26.875 23.5375V16.9875C26.875 16.3 26.3125 15.7375 25.625 15.7375Z" fill="white"/>
<path d="M19.7496 5.76249C19.2371 5.24999 18.3496 5.59999 18.3496 6.31249V10.675C18.3496 12.5 19.8996 14.0125 21.7871 14.0125C22.9746 14.025 24.6246 14.025 26.0371 14.025C26.7496 14.025 27.1246 13.1875 26.6246 12.6875C24.8246 10.875 21.5996 7.61249 19.7496 5.76249Z" fill="white"/>
<path d="M16.875 20.1875H9.375C8.8625 20.1875 8.4375 19.7625 8.4375 19.25C8.4375 18.7375 8.8625 18.3125 9.375 18.3125H16.875C17.3875 18.3125 17.8125 18.7375 17.8125 19.25C17.8125 19.7625 17.3875 20.1875 16.875 20.1875Z" fill="white"/>
<path d="M14.375 25.1875H9.375C8.8625 25.1875 8.4375 24.7625 8.4375 24.25C8.4375 23.7375 8.8625 23.3125 9.375 23.3125H14.375C14.8875 23.3125 15.3125 23.7375 15.3125 24.25C15.3125 24.7625 14.8875 25.1875 14.375 25.1875Z" fill="white"/>
</svg>
